<svg id="to_left" data-name="to left" xmlns="http://www.w3.org/2000/svg" width="850" height="870" viewBox="0 0 850 870">
  <defs>
    <style>
      .cls-1 {
        fill: #494949;
      }

      .cls-1, .cls-2, .cls-3, .cls-4 {
        fill-rule: evenodd;
      }

      .cls-2 {
        fill: #525252;
      }

      .cls-3 {
        fill: #5e5e5e;
      }

      .cls-4 {
        fill: #fff;
      }
    </style>
  </defs>
  <path id="ui_bg" data-name="ui bg" class="cls-1" d="M830.906,11l-822,63-1,100.007,822-50.972Z"/>
  <path id="ui_2" data-name="ui 2" class="cls-2" d="M7.752,102.691s40.432-1.9,193.8-15.285c33.761-2.947,17.739,33.1,53.018,29.643,1.014-.11,576.326-36.443,576.326-36.443l0,41.548-822,51.257Z"/>
  <path id="ui" class="cls-3" d="M104.172,139.679l702.74-44.343a9.087,9.087,0,0,1,9.836,8.8c0.014,4.7-4.275,8.415-9.775,8.957L103.98,154.248c-5.5.229-9.914-2.848-9.861-6.871S98.673,139.907,104.172,139.679Zm-33.769,2.2c4.695-.121,8.493,2.954,8.483,6.868s-3.823,7.185-8.518,7.307-8.493-2.954-8.483-6.868S65.708,142.005,70.4,141.883Zm-29.989,1.141c4.7-.255,8.493,2.711,8.484,6.625s-3.824,7.294-8.519,7.549-8.493-2.711-8.484-6.625S35.719,143.279,40.414,143.024Z"/>
  <path id="hw" class="cls-4" d="M1.906,817a17.15,17.15,0,0,1-1-4l1-726s3.567-24.448,23-26,790-61,790-61,33-2.884,33,35,2,773,2,773,3.243,35.369-31,37c-0.274,1.256-6.384,15-19,15s-571,5-571,5L1.812,863.3C1.812,861.525,1.906,817,1.906,817Zm447-772V62a5.173,5.173,0,0,1-5,5c-4.9.353-79,6-79,6s-3-.854-3-5V52l-337,25s-14,.853-14,16V780l821-2-4-751s-1.03-10.244-28-8c-12.381,1.03-176.714,13.337-350.88,26.35"/>
</svg>
