<svg xmlns="http://www.w3.org/2000/svg" width="1440" height="870" viewBox="0 0 1440 870">
  <defs>
    <style>
      .cls-1 {
        fill: #fff;
        fill-rule: evenodd;
      }
    </style>
  </defs>
  <path id="laptop" class="cls-1" d="M2.095,29.856C5.829-1.751,30.362-.852,39.8.524c2.555,0,786.3,60.551,787.549,60.759,4.16,0,18.035,6.265,20.946,27.237,0,21.8,1.047,720.722,1.047,720.722a37.915,37.915,0,0,1-1.047,7.333c1.826,0,591.709,1.048,591.709,1.048v26.189s-7.14,15.713-17.8,15.713h-65.98l-4.19,5.238h-59.7l-3.14-5.238-643.023,7.333L645.12,870H580.189L576,864.762,184.32,861.62l-4.189,5.237H119.389l-4.189-6.285H49.222S34.995,857.6,30.371,844.859c-8.236,0-30.371-3.81-30.371-34.57C0,778.324,2.095,45.736,2.095,29.856ZM40.844,18.332c-5.718,0-18.851,1.544-18.851,11.523L17.8,777.815l821.061,2.095V91.662c0-10.568-11.52-14.666-11.52-14.666S42.182,18.332,40.844,18.332Z"/>
</svg>
