<svg xmlns="http://www.w3.org/2000/svg" width="850" height="870" viewBox="0 0 850 870">
  <defs>
    <style>
      .cls-1 {
        fill: #494949;
      }

      .cls-1, .cls-2, .cls-3, .cls-4 {
        fill-rule: evenodd;
      }

      .cls-2 {
        fill: #525252;
      }

      .cls-3 {
        fill: #5e5e5e;
      }

      .cls-4 {
        fill: #fff;
      }
    </style>
  </defs>
  <path id="ui_bg" data-name="ui bg" class="cls-1" d="M19,11L841,74l1,100.007L20,123.035Z"/>
  <path id="ui_2" data-name="ui 2" class="cls-2" d="M19,42s40.46,4.738,194.177,16.59C247.014,61.2,227.567,90.582,263,93.325c213.988,16.563,578,42.382,578,42.382l1,38.3L20,123.035Z"/>
  <path id="ui" class="cls-3" d="M115.258,98.81L818,148.075c5.5,0.289,9.956,3.205,9.947,7.9s-4.472,6.017-9.973,5.728L115.1,115.933c-5.5-.4-9.921-4.556-9.878-9.285S109.759,98.411,115.258,98.81ZM81.495,97.3a9.417,9.417,0,0,1,8.5,9.112,7.562,7.562,0,0,1-8.5,7.564,9.417,9.417,0,0,1-8.5-9.112A7.562,7.562,0,0,1,81.495,97.3ZM51.508,95a9.033,9.033,0,0,1,8.5,8.828,7.863,7.863,0,0,1-8.5,7.849,9.033,9.033,0,0,1-8.5-8.828A7.862,7.862,0,0,1,51.508,95Z"/>
  <path id="hw" class="cls-4" d="M848,817a17.15,17.15,0,0,0,1-4L848,87s-3.567-24.448-23-26S35,0,35,0,2-2.884,2,35,0,808,0,808s-3.243,35.369,31,37c0.275,1.256,6.384,15,19,15s571,5,571,5,98.488-.037,227-1V817ZM401,45V62a5.173,5.173,0,0,0,5,5c4.9,0.353,79,6,79,6s3-.854,3-5V52L825,77s14,0.853,14,16V780L18,778,22,27s1.03-10.244,28-8c12.381,1.03,176.714,13.337,350.88,26.35M848.25,817"/>
</svg>
