<svg xmlns="http://www.w3.org/2000/svg" width="1440" height="870" viewBox="0 0 1440 870">
  <defs>
    <style>
      .cls-1 {
        fill: #494949;
      }

      .cls-1, .cls-2, .cls-3, .cls-4 {
        fill-rule: evenodd;
      }

      .cls-2 {
        fill: #525252;
      }

      .cls-3 {
        fill: #5e5e5e;
      }

      .cls-4 {
        fill: #fff;
      }
    </style>
  </defs>
  <path id="ui_bg" data-name="ui bg" class="cls-1" d="M1420.91,11l-822,63-1,100.007,822-50.972Z"/>
  <path id="ui_2" data-name="ui 2" class="cls-2" d="M597.752,102.691s40.432-1.9,193.8-15.285c33.761-2.947,17.739,33.1,53.018,29.643,1.014-.11,576.329-36.443,576.329-36.443v41.548L598.906,173.411Z"/>
  <path id="ui" class="cls-3" d="M694.172,139.679L1396.91,95.336a9.094,9.094,0,0,1,9.84,8.8c0.01,4.7-4.28,8.415-9.78,8.957L693.98,154.248c-5.5.229-9.914-2.848-9.861-6.871S688.673,139.907,694.172,139.679Zm-33.769,2.2c4.695-.121,8.493,2.954,8.483,6.868s-3.823,7.185-8.518,7.307-8.493-2.954-8.483-6.868S655.708,142.005,660.4,141.883Zm-29.989,1.141c4.7-.255,8.493,2.711,8.483,6.625s-3.823,7.294-8.518,7.549-8.494-2.711-8.484-6.625S625.719,143.279,630.414,143.024Z"/>
  <path id="hw" class="cls-4" d="M1404.91,0s33-2.884,33,35,2,773,2,773,3.24,35.369-31,37c-0.28,1.256-6.39,15-19,15s-571,5-571,5l-801-6s-18-5.191-18-18V818l592-1a17.15,17.15,0,0,1-1-4l1-726s3.567-24.448,23-26S1404.91,0,1404.91,0Zm-366,45V62a5.173,5.173,0,0,1-5,5c-4.9.353-79,6-79,6s-3-.854-3-5V52l-337,25s-14,.853-14,16V780l821-2-4-751s-1.03-10.244-28-8c-12.38,1.03-176.72,13.337-350.88,26.35"/>
</svg>
