<svg xmlns="http://www.w3.org/2000/svg" width="995" height="2825" viewBox="0 0 995 2825">
  <defs>
    <style>
      .cls-1 {
        fill: #494949;
      }

      .cls-1, .cls-2, .cls-3 {
        fill-rule: evenodd;
      }

      .cls-2 {
        fill: #fff;
      }

      .cls-3 {
        fill: #5e5e5e;
      }
    </style>
  </defs>
  <path id="ui_bg" data-name="ui bg" class="cls-1" d="M124.368,344l856.57,214S1028.29,205.725,783,196C744.245,183.53,199,24,199,24S78.181,76.845,124.368,344Z"/>
  <path id="hw" class="cls-2" d="M191,0c80.716-2.063,136.092,27.252,195,48L758,163c88.072,27.831,167.721,48.9,203,129,51.53,116.993,31,309.82,31,469V2490c0.012,153.58,2.83,296.02-118,329-55.609,15.18-131.083,3-193,3H272c-89.768.01-172.256-.6-212-50C4.994,2703.63,0,2590.32,0,2466c0-127.72,3-258.67,3-390V658L1,297C0.994,217.382.027,134.738,30,84,53.591,44.066,90,30.93,140,17,172.554,6.644,177.3,5.577,191,0Zm16,55c-18.145,12.56-34.774,13.665-47,32-38.849,58.262-26,183.8-26,278v690q-0.5,597.435-1,1195,0.5,98.985,1,198c0,104.71-6.824,217.89,38,278,33.951,45.53,111.007,40,191,40l353,3c76.4,0,135.04-1,161-1,98.733-24.19,85-156.67,85-279V1702q0.5-489.945,1-980c0-122.682,19.8-336.033-26-414-38.185-65-118.579-77.471-197-102L410,106C345.619,85.833,286.563,55.984,207,55ZM645,211c-24.664-7-145.623-45.193-160-49s-32.428-7.414-43,26c-1.269,5.076-6.657,44.892,26,71,35.958,13.233,134.285,39.448,161,46s39.543,7.121,48-22C682.074,251.277,665.724,217.509,645,211Z"/>
  <path id="ui" class="cls-3" d="M221.125,235.784L888.983,426.173C914.95,431.894,936,454.1,936,475.765s-21.05,34.6-47.017,28.874L221.125,329.784c-25.957-6.853-47-33.452-47-59.409S195.168,228.931,221.125,235.784ZM842.7,296.4l45.321,13.315c3.168,0.931,5.689,5.09,5.63,9.29l-0.268,19.01c-0.059,4.2-2.675,6.849-5.843,5.919l-45.322-13.316c-3.168-.93-5.689-5.09-5.63-9.289l0.268-19.01C836.918,298.123,839.534,295.473,842.7,296.4ZM798.38,317.386l21.149-18.3s-22.77-24.366-43.079-16.607C776.413,282.494,798.38,317.386,798.38,317.386Zm-91.448-24.305L759.817,307.4V274.126ZM267.777,152.728l-6.434-1.66v-5.813l13.312,3.434v33.058l-6.878-1.774V152.728Zm18.326,4.727-6.434-1.66v-5.813l13.312,3.434v33.059L286.1,184.7V157.455Zm16.507,7.275,6.656,1.717V173.1l-6.656-1.717V164.73Zm0,17.572,6.656,1.717v6.656l-6.656-1.717V182.3Zm19.923-15.45-6.434-1.659V159.38l13.312,3.434v33.058l-6.878-1.774V166.852Zm18.326,4.728-6.434-1.66v-5.813l13.312,3.434V200.6l-6.878-1.774V171.58Z"/>
</svg>
