<svg xmlns="http://www.w3.org/2000/svg" width="995" height="2825" viewBox="0 0 995 2825">
  <defs>
    <style>
      .cls-1 {
        fill: #494949;
      }

      .cls-1, .cls-2, .cls-3 {
        fill-rule: evenodd;
      }

      .cls-2 {
        fill: #fff;
      }

      .cls-3 {
        fill: #5e5e5e;
      }
    </style>
  </defs>
  <path id="ui_bg" data-name="ui bg" class="cls-1" d="M871.636,344.128L15.093,558.149s-47.352-352.31,197.932-362.036C251.779,183.642,797.006,24.1,797.006,24.1S917.822,76.946,871.636,344.128Z"/>
  <path id="hw" class="cls-2" d="M805.006,0.094c-80.713-2.063-136.087,27.255-194.994,48L238.024,163.11C149.955,190.943,70.308,212.016,35.03,292.123c-51.528,117.005-31,309.851-31,469.046V2490.34c-0.012,153.6-2.829,296.05,118,329.03,55.607,15.19,131.079,3.01,192.994,3H724.009c89.765,0.01,172.25-.6,211.993-50,55-68.37,60-181.7,60-306.03,0-127.73-3-258.7-3-390.04V658.159q1-180.5,2-361.036c0.006-79.625.973-162.278-29-213.021C942.411,44.164,906,31.026,856,17.1,823.451,6.739,818.709,5.672,805.006.094Zm-16,55.005c18.145,12.561,34.774,13.667,47,32,38.848,58.268,26,183.815,26,278.028V1055.2q0.5,597.495,1,1195.12-0.5,99-1,198.02c0,104.72,6.824,217.91-38,278.02-33.949,45.54-111,40.01-190.994,40.01l-352.989,3c-76.4,0-135.035-1-160.994-1-98.731-24.2-85-156.68-85-279.03V1702.26q-0.5-489.99-1-980.094c0-122.694-19.8-336.067,26-414.042,38.184-65,118.575-77.478,196.994-102.01L586.013,106.1C650.392,85.936,709.446,56.083,789.006,55.1ZM351.02,211.115c24.664-7,145.618-45.2,160-49s32.428-7.415,43,26c1.268,5.077,6.657,44.9-26,71.008-35.957,13.234-134.281,39.451-160.995,46s-39.542,7.122-48-22C313.947,251.4,330.3,217.624,351.02,211.115Z"/>
  <path id="ui" class="cls-3" d="M774.882,235.9L107.045,426.31c-25.966,5.721-47.016,27.926-47.016,49.6s21.05,34.6,47.016,28.877L774.882,329.911c25.956-6.854,47-33.455,47-59.415S800.838,229.047,774.882,235.9Zm-14.989-95.717-45.27,13.342c-3.165.933-5.683,5.1-5.624,9.309l0.267,19.049c0.059,4.209,2.673,6.864,5.838,5.931l45.27-13.342c3.165-.933,5.683-5.1,5.623-9.309l-0.267-19.049C765.671,141.906,763.058,139.251,759.893,140.184Zm-90.248,56.327-21.148-18.3s22.769-24.368,43.077-16.608C691.611,161.615,669.645,196.511,669.645,196.511Zm-84.638,25.5,45.008-13.831V175.014ZM138.4,319.03L132,320.824v-5.755l13.254-3.711v32.727L138.4,346V319.03Zm18.246-5.109-6.406,1.794v-5.754l13.254-3.712v32.727l-6.848,1.917V313.921Zm16.435-1.614,6.627-1.856v6.59l-6.627,1.855v-6.589Zm0,17.395,6.627-1.855v6.589l-6.627,1.856V329.7Zm19.836-25.936-6.406,1.793v-5.754l13.254-3.711V328.82l-6.848,1.917V303.766Zm18.246-5.109-6.406,1.794V294.7l13.254-3.711v32.726l-6.848,1.918V298.657Z"/>
</svg>
