<svg fill="currentColor" viewBox="0 0 3732 850">
  <path id="viserionwick-text" class="cls-1" d="M3392.54,391.209C3201.21,290.2,3003.66,164.27,3003.66,164.27c-99.75-65.85-1.99-.631-101.18-64.333-14.68,112.421,124.34,488.26,330.05,605.891,283.18,161.936,507.18-181.444,464.42-191.006-58.51-5.088-161.88-50.126-271.23-106.325-4.88-2.508,58.72,168.3-29.41,290.132C3391.39,694.691,3318.95,570.633,3392.54,391.209Z"/>
  <path id="viserionwick-icon" class="cls-1" d="M28.433,290.661h74.63l76.825,239.255,76.825-239.255h74.63L219.4,617.716h-79.02Zm331.879,0h65.85v65.85h-65.85v-65.85Zm0,87.361h65.85V617.716h-65.85V378.022ZM499.693,604.327q-29.2-18.654-39.73-50.266l48.29-22.828q9.219,19.323,25.023,30.291A60.16,60.16,0,0,0,568.4,572.5q28.974,0,28.974-21.511,0-14.487-23.706-21.072L532.837,518.5q-29.416-8.334-45.217-27t-15.8-44.12q0-22.389,11.414-39.071t32.047-26.12q20.629-9.435,47.412-9.439,35.117,0,61.68,16.463T661.9,435.531l-48.729,22.828a46.425,46.425,0,0,0-19.1-23.925,56.322,56.322,0,0,0-31.389-9q-12.738,0-19.974,5.268a16.938,16.938,0,0,0-7.244,14.487q0,14.055,25.9,21.511l38.193,11.414q29.849,8.787,45.656,26.56t15.8,43.68q0,33.368-25.462,54T568.4,622.984Q528.886,622.984,499.693,604.327Zm250.01,1.756a116.707,116.707,0,0,1-43.461-45.437q-15.372-28.531-15.365-63.216,0-35.991,16.023-64.094A119.768,119.768,0,0,1,750.142,389q27.214-16.236,61.46-16.243,38.193,0,64.533,15.8A105.477,105.477,0,0,1,916.3,430.922q13.829,26.566,13.829,59.923,0,7.027-.659,13.829a47.9,47.9,0,0,1-2.414,11.633h-167.7q2.634,22.389,18,36t39.51,13.609q17.553,0,30.071-7.024a50.545,50.545,0,0,0,19.536-19.316l52.68,25.023q-10.979,26.34-38.632,42.364t-64.533,16.023Q777.8,622.984,749.7,606.083ZM778.9,436.409q-13.4,10.979-18.218,31.608h99.653q-2.2-18.87-15.365-30.73T811.6,425.434Q792.279,425.434,778.9,436.409Zm189.865-58.387h61.459v36q9.225-22.389,26.12-30.51t38.85-8.122h14.05v57.07h-20.63q-24.15,0-39.07,14.707-14.94,14.713-14.93,41.485V617.716H968.761V378.022Zm169.449-87.361h65.85v65.85h-65.85v-65.85Zm0,87.361h65.85V617.716h-65.85V378.022Zm168.35,228.719a124.762,124.762,0,0,1-46.53-44.558q-17.355-28.315-17.34-64.314,0-36.434,17.34-64.533A125.419,125.419,0,0,1,1306.56,389q29.19-16.236,64.76-16.243,35.55,0,64.53,16.243a125.935,125.935,0,0,1,46.31,44.339q17.34,28.1,17.34,64.533,0,36-17.34,64.314a125.272,125.272,0,0,1-46.31,44.558q-28.98,16.246-64.53,16.243Q1335.755,622.984,1306.56,606.741Zm108.22-61.46q16.68-18.438,16.68-47.412,0-28.532-16.68-47.192t-43.46-18.658q-26.79,0-43.69,18.658t-16.9,47.192q0,28.974,16.9,47.412t43.69,18.438Q1398.08,563.719,1414.78,545.281Zm123.35-167.259h61.46v29.413a58.554,58.554,0,0,1,26.78-26.12q17.55-8.56,40.39-8.561,27.21,0,47.63,11.414A81.194,81.194,0,0,1,1746.21,416q11.415,20.414,11.42,47.631V617.716h-65.85V477.675q0-20.629-12.29-33.144t-31.61-12.512q-19.32,0-31.61,12.512t-12.29,33.144V617.716h-65.85V378.022Zm243.64-87.361h73.76L1910.4,523.77l57.95-233.109h70.24l57.95,233.109,54.87-233.109h73.75l-85.6,327.055h-79.02l-57.07-219.5-57.07,219.5h-79.02Zm472.37,0h65.85v65.85h-65.85v-65.85Zm0,87.361h65.85V617.716h-65.85V378.022Zm167.03,228.5a123.447,123.447,0,0,1-45.65-45q-16.905-28.531-16.9-64.094t16.68-63.874A120.326,120.326,0,0,1,2420.95,389q28.98-16.236,64.98-16.243a131.258,131.258,0,0,1,49.6,9.219,114.211,114.211,0,0,1,39.07,25.682,94.937,94.937,0,0,1,23.27,38.851L2540.8,471.09a56.646,56.646,0,0,0-20.85-28.535q-14.715-10.536-34.02-10.536-25.92,0-42.59,18.438t-16.68,47.412q0,28.974,16.68,47.412t42.59,18.438q19.755,0,34.24-10.536t20.63-28.535l57.07,25.023a93.645,93.645,0,0,1-22.83,37.754,115.153,115.153,0,0,1-39.07,26.121q-22.83,9.435-50.04,9.438Q2449.93,622.984,2421.17,606.522ZM2636.5,285.393h65.85V464.505l81.21-86.483h81.22l-86.92,96.58,86.48,143.114h-74.63l-61.02-102.287L2702.35,544.4v73.313H2636.5V285.393Z"/>
</svg>
